<svg xmlns="http://www.w3.org/2000/svg" width="72" height="97" viewBox="0 0 72 97"><path d="M60 13h-6c0-6.63-8.08-12-18-12-9.96 0-18 5.37-18 12h-6C5.4 13 0 18.35 0 24.98v60c0 6.61 5.4 11.99 12 11.99h48c6.6 0 11.96-5.38 11.96-12v-60C71.96 18.37 66.6 13 60 13zM36 7c6.64 0 12 1.85 12 6H24c0-4.15 5.36-6 12-6zm29.96 77.98c0 3.31-2.68 6-5.96 6H12a6 6 0 0 1-6-6v-6h59.96zm0-12H6v-48A6 6 0 0 1 12 19h6v18h6v-18h24v18h6v-18h6a5.99 5.99 0 0 1 5.96 6z"/><path fill="#fff" d="M60 13h-6c0-6.63-8.08-12-18-12-9.96 0-18 5.37-18 12h-6C5.4 13 0 18.35 0 24.98v60c0 6.61 5.4 11.99 12 11.99h48c6.6 0 11.96-5.38 11.96-12v-60C71.96 18.37 66.6 13 60 13zM36 7c6.64 0 12 1.85 12 6H24c0-4.15 5.36-6 12-6zm29.96 77.98c0 3.31-2.68 6-5.96 6H12a6 6 0 0 1-6-6v-6h59.96zm0-12H6v-48A6 6 0 0 1 12 19h6v18h6v-18h24v18h6v-18h6a5.99 5.99 0 0 1 5.96 6z"/></svg>