<svg xmlns="http://www.w3.org/2000/svg" width="96" height="97" viewBox="0 0 96 97"><path d="M95.04 91.73L70.28 67.35A39.23 39.23 0 0 0 80.76 40.7C80.76 18.77 62.68 1 40.36 1 18.08 1 0 18.77 0 40.71c0 21.95 18.08 39.74 40.36 39.74 9.64 0 18.48-3.34 25.44-8.87l24.84 24.47a3.15 3.15 0 0 0 4.4 0 3.05 3.05 0 0 0 0-4.32zm-54.68-17.4C21.52 74.34 6.2 59.3 6.2 40.72 6.2 22.15 21.52 7.1 40.36 7.1c18.88 0 34.16 15.05 34.16 33.61 0 18.58-15.28 33.63-34.16 33.63z"/><path fill="#fff" d="M95.04 91.73L70.28 67.35A39.23 39.23 0 0 0 80.76 40.7C80.76 18.77 62.68 1 40.36 1 18.08 1 0 18.77 0 40.71c0 21.95 18.08 39.74 40.36 39.74 9.64 0 18.48-3.34 25.44-8.87l24.84 24.47a3.15 3.15 0 0 0 4.4 0 3.05 3.05 0 0 0 0-4.32zm-54.68-17.4C21.52 74.34 6.2 59.3 6.2 40.72 6.2 22.15 21.52 7.1 40.36 7.1c18.88 0 34.16 15.05 34.16 33.61 0 18.58-15.28 33.63-34.16 33.63z"/></svg>