<svg xmlns="http://www.w3.org/2000/svg" width="100" height="100" viewBox="0 0 100 100"><path class="01" d="M50 0a50 50 0 1 1 0 100A50 50 0 0 1 50 0z"/><path class="02" d="M44.93 66.82a2.07 2.07 0 0 1-2.06-2.06V35.24a2.07 2.07 0 0 1 3.38-1.59l17.72 14.77a2.05 2.05 0 0 1 0 3.16L46.25 66.34c-.37.32-.84.48-1.32.48zM47 39.63v20.73L59.43 50zM49.94 85a34.8 34.8 0 0 1-17.1-4.47 2.06 2.06 0 1 1 2.02-3.59 31 31 0 0 0 36.99-5.09 30.94 30.94 0 0 0 0-43.7 30.93 30.93 0 0 0-43.7 0 30.94 30.94 0 0 0 0 43.7 2.06 2.06 0 1 1-2.91 2.91 35.06 35.06 0 0 1 0-49.52 35.04 35.04 0 0 1 49.52 0 35.06 35.06 0 0 1 0 49.52A35.12 35.12 0 0 1 49.94 85z"/><path class="03" fill="#fff" d="M44.93 66.82a2.07 2.07 0 0 1-2.06-2.06V35.24a2.07 2.07 0 0 1 3.38-1.59l17.72 14.77a2.05 2.05 0 0 1 0 3.16L46.25 66.34c-.37.32-.84.48-1.32.48zM47 39.63v20.73L59.43 50zM49.94 85a34.8 34.8 0 0 1-17.1-4.47 2.06 2.06 0 1 1 2.02-3.59 31 31 0 0 0 36.99-5.09 30.94 30.94 0 0 0 0-43.7 30.93 30.93 0 0 0-43.7 0 30.94 30.94 0 0 0 0 43.7 2.06 2.06 0 1 1-2.91 2.91 35.06 35.06 0 0 1 0-49.52 35.04 35.04 0 0 1 49.52 0 35.06 35.06 0 0 1 0 49.52A35.12 35.12 0 0 1 49.94 85z"/></svg>
